<mxfile host="app.diagrams.net" modified="2024-01-11T00:55:31.791Z" agent="Mozilla/5.0 (Windows NT 10.0; Win64; x64) AppleWebKit/537.36 (KHTML, like Gecko) Chrome/120.0.0.0 Safari/537.36 Edg/120.0.0.0" etag="HORnQJ7LkN2Yz2jn8WFD" version="22.1.17" type="device">
  <diagram name="Page-1" id="SeelCiVEon3vuhmFlNcy">
    <mxGraphModel dx="1042" dy="535" grid="1" gridSize="10" guides="1" tooltips="1" connect="1" arrows="1" fold="1" page="1" pageScale="1" pageWidth="850" pageHeight="1100" math="0" shadow="0">
      <root>
        <mxCell id="0" />
        <mxCell id="1" parent="0" />
        <mxCell id="nfLfSvUsJ2dPGV4TAt0O-1" value="Employee" style="rounded=0;whiteSpace=wrap;html=1;" parent="1" vertex="1">
          <mxGeometry x="400" y="30" width="120" height="50" as="geometry" />
        </mxCell>
        <mxCell id="nfLfSvUsJ2dPGV4TAt0O-5" style="edgeStyle=orthogonalEdgeStyle;rounded=0;orthogonalLoop=1;jettySize=auto;html=1;exitX=0.5;exitY=0;exitDx=0;exitDy=0;" parent="1" source="nfLfSvUsJ2dPGV4TAt0O-2" target="nfLfSvUsJ2dPGV4TAt0O-1" edge="1">
          <mxGeometry relative="1" as="geometry" />
        </mxCell>
        <mxCell id="nfLfSvUsJ2dPGV4TAt0O-11" style="edgeStyle=orthogonalEdgeStyle;rounded=0;orthogonalLoop=1;jettySize=auto;html=1;exitX=0.5;exitY=1;exitDx=0;exitDy=0;entryX=0.5;entryY=0;entryDx=0;entryDy=0;dashed=1;" parent="1" source="nfLfSvUsJ2dPGV4TAt0O-2" target="nfLfSvUsJ2dPGV4TAt0O-8" edge="1">
          <mxGeometry relative="1" as="geometry" />
        </mxCell>
        <mxCell id="nfLfSvUsJ2dPGV4TAt0O-19" style="edgeStyle=orthogonalEdgeStyle;rounded=0;orthogonalLoop=1;jettySize=auto;html=1;entryX=0.5;entryY=1;entryDx=0;entryDy=0;fillColor=#e1d5e7;strokeColor=#9673a6;" parent="1" source="nfLfSvUsJ2dPGV4TAt0O-2" target="nfLfSvUsJ2dPGV4TAt0O-18" edge="1">
          <mxGeometry relative="1" as="geometry" />
        </mxCell>
        <mxCell id="nfLfSvUsJ2dPGV4TAt0O-2" value="Type 1" style="rounded=0;whiteSpace=wrap;html=1;" parent="1" vertex="1">
          <mxGeometry x="220" y="200" width="120" height="50" as="geometry" />
        </mxCell>
        <mxCell id="nfLfSvUsJ2dPGV4TAt0O-6" style="edgeStyle=orthogonalEdgeStyle;rounded=0;orthogonalLoop=1;jettySize=auto;html=1;exitX=0.5;exitY=0;exitDx=0;exitDy=0;entryX=0.5;entryY=1;entryDx=0;entryDy=0;" parent="1" source="nfLfSvUsJ2dPGV4TAt0O-3" target="nfLfSvUsJ2dPGV4TAt0O-1" edge="1">
          <mxGeometry relative="1" as="geometry">
            <mxPoint x="390" y="140" as="targetPoint" />
          </mxGeometry>
        </mxCell>
        <mxCell id="nfLfSvUsJ2dPGV4TAt0O-9" style="edgeStyle=orthogonalEdgeStyle;rounded=0;orthogonalLoop=1;jettySize=auto;html=1;exitX=0.5;exitY=1;exitDx=0;exitDy=0;entryX=0.5;entryY=0;entryDx=0;entryDy=0;dashed=1;" parent="1" source="nfLfSvUsJ2dPGV4TAt0O-3" target="nfLfSvUsJ2dPGV4TAt0O-8" edge="1">
          <mxGeometry relative="1" as="geometry" />
        </mxCell>
        <mxCell id="nfLfSvUsJ2dPGV4TAt0O-22" style="edgeStyle=orthogonalEdgeStyle;rounded=0;orthogonalLoop=1;jettySize=auto;html=1;exitX=0.5;exitY=0;exitDx=0;exitDy=0;fillColor=#e1d5e7;strokeColor=#9673a6;" parent="1" source="nfLfSvUsJ2dPGV4TAt0O-3" edge="1">
          <mxGeometry relative="1" as="geometry">
            <mxPoint x="140" y="100" as="targetPoint" />
          </mxGeometry>
        </mxCell>
        <mxCell id="nfLfSvUsJ2dPGV4TAt0O-3" value="Type 1" style="rounded=0;whiteSpace=wrap;html=1;" parent="1" vertex="1">
          <mxGeometry x="400" y="200" width="120" height="50" as="geometry" />
        </mxCell>
        <mxCell id="nfLfSvUsJ2dPGV4TAt0O-7" style="edgeStyle=orthogonalEdgeStyle;rounded=0;orthogonalLoop=1;jettySize=auto;html=1;exitX=0.5;exitY=0;exitDx=0;exitDy=0;" parent="1" source="nfLfSvUsJ2dPGV4TAt0O-4" target="nfLfSvUsJ2dPGV4TAt0O-1" edge="1">
          <mxGeometry relative="1" as="geometry" />
        </mxCell>
        <mxCell id="nfLfSvUsJ2dPGV4TAt0O-10" style="edgeStyle=orthogonalEdgeStyle;rounded=0;orthogonalLoop=1;jettySize=auto;html=1;exitX=0.5;exitY=1;exitDx=0;exitDy=0;dashed=1;entryX=0.5;entryY=0;entryDx=0;entryDy=0;" parent="1" source="nfLfSvUsJ2dPGV4TAt0O-4" target="nfLfSvUsJ2dPGV4TAt0O-8" edge="1">
          <mxGeometry relative="1" as="geometry">
            <mxPoint x="470" y="320" as="targetPoint" />
          </mxGeometry>
        </mxCell>
        <mxCell id="nfLfSvUsJ2dPGV4TAt0O-4" value="Type 1" style="rounded=0;whiteSpace=wrap;html=1;" parent="1" vertex="1">
          <mxGeometry x="570" y="200" width="120" height="50" as="geometry" />
        </mxCell>
        <mxCell id="nfLfSvUsJ2dPGV4TAt0O-8" value="ITaxCalculation" style="rounded=0;whiteSpace=wrap;html=1;" parent="1" vertex="1">
          <mxGeometry x="400" y="320" width="120" height="60" as="geometry" />
        </mxCell>
        <mxCell id="nfLfSvUsJ2dPGV4TAt0O-17" style="edgeStyle=orthogonalEdgeStyle;rounded=0;orthogonalLoop=1;jettySize=auto;html=1;exitX=0.5;exitY=0;exitDx=0;exitDy=0;" parent="1" source="nfLfSvUsJ2dPGV4TAt0O-12" edge="1">
          <mxGeometry relative="1" as="geometry">
            <mxPoint x="460" y="380" as="targetPoint" />
          </mxGeometry>
        </mxCell>
        <mxCell id="nfLfSvUsJ2dPGV4TAt0O-12" value="TaxCalc1" style="rounded=0;whiteSpace=wrap;html=1;" parent="1" vertex="1">
          <mxGeometry x="240" y="440" width="120" height="60" as="geometry" />
        </mxCell>
        <mxCell id="nfLfSvUsJ2dPGV4TAt0O-15" style="edgeStyle=orthogonalEdgeStyle;rounded=0;orthogonalLoop=1;jettySize=auto;html=1;exitX=0.5;exitY=0;exitDx=0;exitDy=0;entryX=0.5;entryY=1;entryDx=0;entryDy=0;" parent="1" source="nfLfSvUsJ2dPGV4TAt0O-13" target="nfLfSvUsJ2dPGV4TAt0O-8" edge="1">
          <mxGeometry relative="1" as="geometry" />
        </mxCell>
        <mxCell id="nfLfSvUsJ2dPGV4TAt0O-13" value="TaxCalc2&lt;span style=&quot;white-space: pre;&quot;&gt;&#x9;&lt;/span&gt;" style="rounded=0;whiteSpace=wrap;html=1;" parent="1" vertex="1">
          <mxGeometry x="400" y="440" width="120" height="60" as="geometry" />
        </mxCell>
        <mxCell id="nfLfSvUsJ2dPGV4TAt0O-16" style="edgeStyle=orthogonalEdgeStyle;rounded=0;orthogonalLoop=1;jettySize=auto;html=1;exitX=0.5;exitY=0;exitDx=0;exitDy=0;entryX=0.5;entryY=1;entryDx=0;entryDy=0;" parent="1" source="nfLfSvUsJ2dPGV4TAt0O-14" target="nfLfSvUsJ2dPGV4TAt0O-8" edge="1">
          <mxGeometry relative="1" as="geometry" />
        </mxCell>
        <mxCell id="nfLfSvUsJ2dPGV4TAt0O-14" value="TaxCalc3" style="rounded=0;whiteSpace=wrap;html=1;" parent="1" vertex="1">
          <mxGeometry x="560" y="440" width="120" height="60" as="geometry" />
        </mxCell>
        <mxCell id="nfLfSvUsJ2dPGV4TAt0O-18" value="ITaxableEmployee" style="rounded=0;whiteSpace=wrap;html=1;" parent="1" vertex="1">
          <mxGeometry x="80" y="50" width="120" height="50" as="geometry" />
        </mxCell>
      </root>
    </mxGraphModel>
  </diagram>
</mxfile>
